<svg xmlns="http://www.w3.org/2000/svg" viewBox="0 0 80 78.99"><defs><style>.cls-1{fill:#dc2724;}</style></defs><title>资源 2</title><g id="图层_2" data-name="图层 2"><g id="图层_1-2" data-name="图层 1"><path class="cls-1" d="M12.87,58.86c1.62-3.2,3.8-5.84,1.8-9.18-.93-1.55.39-2.33,1.47-3.09,1.67-1.18,3.39-2.3,5-3.56,3.18-2.48,2.41-4.4-1.12-5.3C14.63,36.35,9.18,35.28,3.23,34,11,26.42.59,22.9,0,16.89c2.65-1,5.38-.15,8,0,2.91.15,5.56.57,6.37-3.41.57-2.8,2.32-1.55,3.71-.51,2.38,1.78,4.66,3.71,7.11,5.39,4.21,2.89,6.56,2.18,8.56-2.64,1.06-2.56,1.71-5.28,2.62-7.91C39.35-.73,46.15-2.47,52.7,3.6c.66.61,1.58.89.54,2-5.6,6.05-3,13-1.77,19.61a21.94,21.94,0,0,1-5.71,20.06c-5.33,5.79-11.9,10.06-18.23,14.64-2,1.42-3.42.59-5-.34C19.69,58,16.68,59,12.87,58.86Z"/><path class="cls-1" d="M33.73,79c.14-9.16,2.72-17.4,9.34-23.78,9.1-8.76,14.44-18.75,12.8-31.79-.38-3,5.7-10.64,8.61-11.48.46-.13,1.43-.08,1.47.07,2.26,8.41,8.8,3.11,13.32,4.19.18,0,.35.11.72.23.34,5.95-10.14,9.8-3.2,17.16-5.33,1.23-10.41,2.29-15.43,3.62-1.87.49-5,2.2-2,3.86,6.83,3.75,8.15,9.64,8.14,16.76-5.35-.62-11.28,3.63-16.86-1.8-2.39-2.33-4.92.1-6.72,2-4.25,4.4-5.64,10-5.75,15.87C38.1,76.65,37.48,78.64,33.73,79Z"/></g></g></svg>